<svg enable-background="new 0 0 100 100" height="512" viewBox="0 0 100 100" width="512" xmlns="http://www.w3.org/2000/svg"><path d="m73.6803513 82.6601105c-1.6931229 1.0161819-5.3406067 1.8545151-12.4821396-1.4365158-6.3584709-2.9301834-9.5937767-.1863251-11.198204 2.6918945-1.6044312-2.8782196-4.8397484-5.6220779-11.1982193-2.6918945-7.1415329 3.2910309-10.7890129 2.4526978-12.4821415 1.4365158-.2909565-.174614-.6269608.1505661-.4663029.4494705 2.2511635 4.1882706 9.1022415 14.751976 19.3929367 11.1564331 0 0 2.6408234-1.0003433 4.753727-3.6110687 2.1129036 2.6107254 4.7537117 3.6110687 4.7537117 3.6110687 10.2906914 3.5955429 17.1417732-6.9681625 19.3929405-11.1564331.1606521-.2989044-.1753464-.6240845-.4663086-.4494705z" fill="#293b44"/><path d="m80.9545212 75.5190659h1.3897552s3.1765823-33.5526733 2.7795105-41.8912048-7.7429199-20.2507249-19.6551132-20.4492617c0 0-3.1765862-7.7429233-11.9121895-8.1399965-8.7356071-.3970728-21.64048 2.1839018-28.9863319 11.7136536s-8.1399956 7.9414597-9.7282887 28.3907223l3.3751202 30.3760872h2.1839027s-3.3751202-13.6990242.1985359-20.8463364-.3970718-16.081459 4.5663395-16.8756027c4.9634132-.7941475 17.6697483 9.9268265 37.1263275-.9926834 0 0 11.7136574 5.1619492 12.7063408 6.5517044.9926758 1.3897552-2.9780502 4.5663414.3970718 8.5370712s7.1473142 5.1619491 5.5590192 23.6258468z" fill="#293b44"/><g fill="#467082"><path d="m49.3417168 8.4515162c-6.1496811-.6632009-12.5532951 1.6787863-16.8240547 6.1530476 3.9346657-2.3220682 9.1589966-2.2586193 13.0361099.1583242-7.1512451 1.7839985-14.6139755 3.7291489-20.0878143 8.6647358 3.7420349-1.2049999 7.5077782-2.4154949 11.4030037-2.9466228s7.9668694-.3513603 11.5991478 1.1524353c-5.6128464.4351845-11.1404114 1.9454803-16.1947136 4.424881 5.5595589.0919094 11.1191177.1838188 16.6786766.2757282-4.7520599 3.2559795-10.7389526 4.6599293-16.4430847 3.8559647 5.324131 1.5975056 11.0182228 1.9477043 16.4979858 1.0146618 2.5577965-.4355164 5.0660019-1.1451778 7.6361427-1.5006447 2.5701447-.3554649 5.2636681-.3385334 7.6675682.6378155-3.0201797-2.3036118-6.0403595-4.6072235-9.0605354-6.9108353 2.8654938.3994312 5.6675797 1.250433 8.271244 2.5119991-2.3003349-5.0218182-6.0711136-9.3593903-10.7240601-12.3360147 4.0956497 1.9888325 7.9160843 4.5434332 11.3188171 7.5685244-1.8262482-3.3538113-4.2635841-6.3736477-7.1563606-8.8666592 1.2398491.943841 2.479702 1.887682 3.7195511 2.8315229.718605.5470419 2.3312912 2.2947035 3.2282257 2.0985289-2.7113036-4.9604312-9.1377486-8.2020093-14.5658492-8.7873927z" opacity=".25"/><path d="m77.4265137 23.5165024c2.9064636 3.4314919 4.3738632 7.99893 4.2248001 12.4934196-.4934311-4.51614-3.4421768-8.6876431-7.5349579-10.6594753 2.914444 3.6065102 4.9641113 7.9070644 5.9300461 12.4422512-.8393631-2.7131004-3.3096695-4.8493347-6.1154861-5.2884521 3.2433624 3.1359558 5.663269 7.1162338 6.9546051 11.4389725-4.8866882-3.7595406-10.1300278-7.055275-15.6366577-9.8285141 1.9859924.3294945 3.9719849.6589928 5.9579773.9884872-1.6099701-1.7770004-3.2199478-3.5539989-4.8299255-5.3309956 1.7311707.5550652 3.4623489 1.1101303 5.1935196 1.6651955-1.0249939-2.2241154-2.8109131-4.0890102-4.9886169-5.2092342 2.2965088.39291 4.547226 1.0528316 6.6923065 1.9622173-1.7853622-2.557066-4.4116821-4.5165043-7.3713455-5.499609 2.1051941-1.2512188 4.8361893-1.3795223 7.0494156-.3311825-1.8468704-.6423893-3.6840744-2.0907364-5.392746-3.0577679-.4503708-.2548904-1.6849365-.7762794-.8643875-1.4072094.4148407-.3189754 1.7625351.1803074 2.2196732.2954044 3.2977827.8302937 6.3154981 2.7334729 8.5117796 5.3264924z" opacity=".25"/></g></svg>